#!OML:ASF F:\VICON\USERDATA\INSTALL\rory3\rory3.ASF
:FULLY-SPECIFIED
:DEGREES
72
root 0.24737644103172973 17.803984106291534 32.20631260170766 -2.4344852946365667 1.1998624610743311 -1.3636498447367582
lfemur 8.987640322703104 -4.673885334294553 -20.543579419704784
ltibia 41.23304492680107
lfoot 6.5846280696197725 -12.306919953619543
ltoes -8.9581882577836
rfemur -23.48604895625484 4.634162013544374 25.02586585207939
rtibia 31.574205927603828
rfoot -4.095709578585346 -3.795319572304997
rtoes 7.463180816211263
lowerback 9.595280188314739 -1.2311879721017989 -0.5062243247730824
upperback 0.37223342532695763 -1.5631377050856914 2.7497252102667167
thorax -4.85379593449409 -0.7354721245895577 3.323465622329623
lowerneck -16.520185586840682 -2.45948716305992 -2.3712418954392085
upperneck 20.863306408990656 -3.0074954971253987 0.6106907284002727
head 9.311505336502636 -1.51328395535499 0.2782840589296094
lclavicle -1.3344571872976348e-15 1.4770430922869228e-15
lhumerus -22.625066304914323 -2.198867432982423 83.77707058787982
lradius 30.373965746447332
lwrist 7.1545987267315345
lhand -28.07284361732024 22.741574209366277
lfingers 7.12502
lthumb -1.456194169596528 52.70219577397968
rclavicle -1.3344571872976348e-15 1.4770430922869228e-15
rhumerus -33.6021150889448 -27.25360114290776 -73.61807399552981
rradius 20.44557978426989
rwrist 13.110618470498693
rhand -17.5013108355227 22.559740338243035
rfingers 7.12502
rthumb 8.75152255278298 -7.24166464451135
73
root 0.17092327495327708 17.902254428691595 32.326216571693315 -2.788044216560894 0.9092561979353699 -2.816360481483644
lfemur 3.555307223152882 -3.7849967596766705 -18.09013607529427
ltibia 50.20426075235042
lfoot 10.869947410295012 -14.131752425056419
ltoes -4.384307102528446
rfemur -20.685842274559086 4.92282086014262 27.115431865650187
rtibia 31.496251547134555
rfoot -5.787950520854414 -4.173554622567087
rtoes 9.394138546920585
lowerback 9.70998189214855 -1.0677875041921263 0.6891701996175473
upperback 0.41016627261924204 -1.1982418565446906 2.9783197888447774
thorax -4.917357311281218 -0.5778386678701537 2.804045074293317
lowerneck -16.33860715669034 -2.507948629587834 -2.3281855451426394
upperneck 20.89866791109034 -3.0923894980577837 0.6761636365796326
head 9.29241629836503 -1.5466929200592694 0.28031362220475786
lclavicle -1.6170525634544393e-15 1.2165031968809834e-15
lhumerus -24.023225593292718 -2.180150432688987 84.25020693598526
lradius 29.730137755789684
lwrist 6.283349010354232
lhand -27.308513541486192 23.18647890514631
lfingers 7.12502
lthumb -0.718056316207584 53.14940422918248
rclavicle -1.6170525634544391e-15 1.2165031968809834e-15
rhumerus -33.199914346291436 -26.437927872591157 -74.36314020391158
rradius 20.59756728795592
rwrist 12.41658299500103
rhand -17.225979326847014 23.003934865556996
rfingers 7.12502
rthumb 9.017233773533516 -6.786567461592279
74
root 0.10676996364759989 17.989304738653626 32.401700076009874 -3.0601954674754253 0.5212846132551285 -3.9056590397520363
lfemur -2.0204576251469444 -2.638571755631123 -16.153069596152683
ltibia 57.68440977977781
lfoot 11.056311444543631 -13.744880981314
ltoes -1.7427806332254734
rfemur -17.66371989472038 5.205083473089902 28.797098164060834
rtibia 30.75556770183674
rfoot -7.786479728333296 -4.91132865033726
rtoes 9.825653428361134
lowerback 9.780662480122217 -0.7885458746612438 1.6195138185897422
upperback 0.4868885350400235 -0.7183626872047635 3.0451481955142805
thorax -4.928664686380292 -0.3599761778580398 2.2639976695764488
lowerneck -16.187456974174204 -2.593121053067521 -2.3139430331765065
upperneck 20.891422528145473 -3.240065222109359 0.8716853186307922
head 9.271831957515843 -1.6008740951499865 0.31278859378740165
lclavicle -1.843875066957801e-15 1.0072309364385364e-15
lhumerus -25.179034281260645 -2.27181730106933 84.61567460062983
lradius 28.89016318328338
lwrist 5.205951177431015
lhand -26.84778917442571 23.404631897211114
lfingers 7.12502
lthumb -0.2731185628025609 53.37100644798905
rclavicle -1.843875066957801e-15 1.0072309364385362e-15
rhumerus -32.400638843319705 -24.970384878250133 -75.58634814049167
rradius 20.951802076307654
rwrist 11.402130139756492
rhand -16.942632445899 23.45382955159092
rfingers 7.12502
rthumb 9.290681488560926 -6.324830954479262
75
root 0.07064799244606923 18.05195112363314 32.635437820101984 -3.23582584558982 0.008880557109166354 -4.568827091791501
lfemur -7.121922931331867 -1.3210560727612533 -14.857963089695122
ltibia 63.04120800526836
lfoot 7.6148991427815895 -11.510130232354456
ltoes -1.7773133869285196
rfemur -14.57030846398205 5.451030807162963 30.07943402701641
rtibia 30.18521761718745
rfoot -9.618557661529213 -5.417907309089967
rtoes 9.436392065301321
lowerback 9.805499448746243 -0.3880060717721866 2.3596046866787996
upperback 0.574966256936983 -0.10980868923291154 2.9691862387072003
thorax -4.896126324238209 -0.07574016138202178 1.7291010151225543
lowerneck -16.043574608078213 -2.6805957016132025 -2.304929913498479
upperneck 20.89626631685226 -3.391644883702249 1.0996226903240818
head 9.262472365873089 -1.6556468666976432 0.3540358785557
lclavicle -1.8197129816440725e-15 1.029167262238282e-15
lhumerus -26.180597538689163 -2.086347920200528 84.82627086817382
lradius 28.069797218245085
lwrist 4.362251307211487
lhand -26.82624280334587 23.351511346842816
lfingers 7.12502
lthumb -0.25229973873756584 53.32233135798967
rclavicle -1.8197129816440725e-15 1.029167262238282e-15
rhumerus -31.331469996346435 -23.0628198922208 -76.94678605850882
rradius 21.520536226353624
rwrist 10.340590250096248
rhand -16.768005338532912 23.462310041229937
rfingers 7.12502
rthumb 9.459209159834463 -6.3079739609442225
76
root 0.04640160766866158 18.078267919861105 32.54272370158266 -3.3372704964973705 -0.7182738001832598 -5.032608185553905
lfemur -11.92018328045785 -0.020771415736784427 -14.29454261687385
ltibia 65.58432950902339
lfoot 2.3498213770079532 -8.596449023109535
ltoes -3.43034042808212
rfemur -12.0060307860043 5.551488470448703 30.92172256407531
rtibia 29.713618587777283
rfoot -11.52447576701095 -5.658804717724121
rtoes 8.75175454380001
lowerback 9.800866986642571 0.05447175601791898 2.9247732282727608
upperback 0.6332407645258405 0.531064943089499 2.7872439982656703
thorax -4.8647267401671295 0.22743277157831937 1.1369991867124303
lowerneck -15.952184604654152 -2.753318300765212 -2.294118323594389
upperneck 20.89667678334817 -3.5182558870262817 1.2584919518714988
head 9.257298525191688 -1.7009887835767974 0.375834752643972
lclavicle -1.9800625183964493e-15 8.813052772892935e-16
lhumerus -27.32289195292241 -1.6779953905156006 84.83544258994273
lradius 27.29839131422235
lwrist 4.017897033837061
lhand -27.097816477115803 23.00520551235863
lfingers 7.12502
lthumb -0.5145522154453087 52.98018025860035
rclavicle -1.9800625183964493e-15 8.813052772892935e-16
rhumerus -30.24494046694641 -20.992563074525478 -78.29189529437821
rradius 22.235671966298153
rwrist 9.128945895855496
rhand -16.791604633144146 22.809747085756896
rfingers 7.12502
rthumb 9.436441331347725 -6.958447533260271
77
root 0.04845804647214946 18.080064871083124 33.200670243550775 -3.2783288628626446 -1.4115762081821028 -5.276683360400941
lfemur -15.559021968296445 1.1814561091657354 -13.818818351834707
ltibia 66.21780183610022
lfoot -2.05104892948146 -5.442998808467019
ltoes -4.78226580391895
rfemur -9.245777086784218 5.699241780754253 31.896006140563873
rtibia 30.09001394627657
rfoot -13.029748817588345 -5.544597535215379
rtoes 8.493844923785517
lowerback 9.836965859140399 0.5659699243608483 3.679460040803529
upperback 0.6678772969568966 1.2809713689103541 2.6227041883857702
thorax -4.833383460831396 0.5809299432154702 0.6085319923090562
lowerneck -15.901630657661553 -2.7904030241189255 -2.2318585781170164
upperneck 20.887825462968774 -3.584972379394988 1.3545828560448023
head 9.258244881953193 -1.7239166976892895 0.38373552117292653
lclavicle -1.452830555397931e-15 1.3669087492911308e-15
lhumerus -28.306256678406967 -0.8525766295528834 84.7605792695392
lradius 26.844218057089286
lwrist 4.300771608977164
lhand -27.342368396998797 22.7207593356186
lfingers 7.12502
lthumb -0.7507162202618664 52.69761149473054
rclavicle -1.452830555397931e-15 1.3669087492911308e-15
rhumerus -29.064276479532484 -18.559958887300827 -79.35445233174599
rradius 23.261786164706432
rwrist 7.892986372065857
rhand -16.938873569284073 22.02728934296446
rfingers 7.12502
rthumb 9.29432861928943 -7.7463334297476445
78
root 0.04927105805654719 18.05207952195882 33.238680272984205 -3.1035051460746335 -2.2392583593740802 -5.7223087756185915
lfemur -19.111639666119935 1.8572251197033611 -13.579443679955213
ltibia 63.49326335064984
lfoot -5.211926666582053 -2.6212639886283005
ltoes -5.511661756449902
rfemur -7.174530360505985 5.745656343219718 32.65914617688986
rtibia 29.863233367396695
rfoot -14.765303315138134 -5.7123373053864555
rtoes 8.320199970973956
lowerback 9.874074885884555 1.0002141438614527 4.406826006767628
upperback 0.6636479286061024 1.9335817947497738 2.455576259416044
thorax -4.833711727301364 0.886403710704095 -0.030062255647750113
lowerneck -15.96447743716846 -2.808922264519169 -2.1700277087836093
upperneck 20.78813998517583 -3.619142519221199 1.3465444043115524
head 9.235865672519877 -1.7350158385262833 0.3628272308038169
lclavicle -1.5099510217579906e-15 1.3143358860704996e-15
lhumerus -29.49556980670225 -0.10550557397509319 84.58248719766786
lradius 26.395958413870485
lwrist 4.748039189518523
lhand -27.658581568710872 22.248941220212025
lfingers 7.12502
lthumb -1.0561071225276644 52.224625742226586
rclavicle -1.5099510217579906e-15 1.3143358860704998e-15
rhumerus -28.02642046135453 -16.193600904302716 -80.34645571414833
rradius 24.392285366747256
rwrist 6.325585667423603
rhand -17.213873515541895 21.496678234211718
rfingers 7.12502
rthumb 9.028948243013462 -8.287349590356715
